Coordinates
version=1
nRows=11
nColumns=36
inDegrees=yes

Units are S.I. units (second, meters, Newtons, ...)
If the header above contains a line with 'inDegrees', this indicates whether rotational values are in degrees (yes) or radians (no).

endheader
time	pelvis_tilt	pelvis_list	pelvis_rotation	pelvis_tx	pelvis_ty	pelvis_tz	hip_flexion_r	hip_adduction_r	hip_rotation_r	knee_angle_r	knee_angle_r_beta	ankle_angle_r	subtalar_angle_r	mtp_angle_r	hip_flexion_l	hip_adduction_l	hip_rotation_l	knee_angle_l	knee_angle_l_beta	ankle_angle_l	subtalar_angle_l	mtp_angle_l	lumbar_extension	lumbar_bending	lumbar_rotation	arm_flex_r	arm_add_r	arm_rot_r	elbow_flex_r	pro_sup_r	arm_flex_l	arm_add_l	arm_rot_l	elbow_flex_l	pro_sup_l
      5.25000000	    -28.36075550	     -6.26095921	     -7.73394243	      0.58163280	      0.81329947	      0.13315058	     76.79626236	     12.90779236	    -12.39915156	     74.63268254	      1.30258604	     35.63654952	     11.05239191	     -7.49999987	    100.50865110	    -11.33807335	      9.59471216	     41.64441628	      0.72683218	      9.57180298	     22.31537406	     -7.49999987	    -20.05582141	      5.17702305	      8.94871240	     52.84898831	      2.61039969	     74.53748532	    117.76263813	     94.18277066	     67.57809543	    -11.32853321	     65.59766363	    129.53927917	     93.45524338
      5.26666670	    -27.59313505	     -6.15788417	     -7.32636931	      0.58162259	      0.81914698	      0.13287572	     75.44218771	     13.00135310	    -11.65409420	     73.45687416	      1.28206431	     35.04468099	     10.60180792	     -7.49999987	     99.22213924	    -11.20849623	      9.09765033	     41.49740834	      0.72426641	      9.34461783	     22.15520909	     -7.49999987	    -19.99039081	      4.56209438	      8.69361246	     52.19522120	      3.67511961	     74.25431322	    118.79707293	     93.36460383	     67.52429932	    -11.25819424	     64.98341472	    130.54906878	     92.37205526
      5.28333330	    -26.53289381	     -6.08280438	     -6.86972770	      0.58315606	      0.83181092	      0.13364708	     73.49969050	     13.17303000	    -10.72345271	     71.90606130	      1.25499752	     34.40001522	      9.83247497	     -7.49999987	     97.48781217	    -11.00591179	      8.65295801	     41.09534733	      0.71724912	      9.06215341	     21.71710718	     -7.49999987	    -20.30011098	      4.03625431	      8.18387611	     50.35900203	      3.70171589	     74.35467833	    119.03904347	     99.59197059	     66.00340275	    -11.69947162	     64.07573784	    130.47897054	     96.27887623
      5.30000000	    -25.54341581	     -6.00046966	     -6.28078770	      0.57619063	      0.84045202	      0.13503992	     71.85593000	     13.18096546	     -9.93513174	     70.45999112	      1.22975884	     33.33592474	      8.90807335	     -7.49999987	     95.76612519	    -10.67605970	      8.32270099	     40.44794013	      0.70594973	      8.58959078	     21.17572129	     -7.49999987	    -20.57396005	      3.39009297	      7.76786455	     49.64086515	      4.89226466	     74.54074758	    118.72861053	     99.89446930	     66.02941756	    -12.04280346	     64.81159819	    131.34901078	     96.39811306
      5.31666670	    -25.17828813	     -6.02904317	     -5.74307722	      0.57666981	      0.85166821	      0.13443587	     70.63126845	     13.24703335	     -9.27852198	     68.79964208	      1.20078028	     32.62338339	      8.50138489	     -7.49999987	     94.40687226	    -10.36610893	      8.18385696	     39.80205227	      0.69467686	      8.40981806	     20.74343428	     -7.49999987	    -20.03273105	      3.04706232	      7.38268933	     48.62353415	      5.08300564	     75.33869675	    119.19680199	     99.85678649	     65.45080615	    -11.90197308	     65.45830395	    131.88446727	     96.35352306
      5.33333330	    -23.69442525	     -5.71578824	     -4.86656927	      0.58222261	      0.86047246	      0.13618979	     68.23821826	     13.07783686	     -8.00826073	     67.27175264	      1.17411358	     31.46056934	      6.93314108	     -7.49999987	     91.71662413	     -9.85431193	      7.51383101	     39.08446248	      0.68215256	      7.90171508	     19.96219125	     -7.49999987	    -21.19451286	      2.18075136	      6.59358460	     47.77361871	      5.47984931	     77.00370367	    119.78180169	     99.94094909	     65.66740865	    -12.26533925	     67.25707550	    133.69579720	     96.28393313
      5.35000000	    -23.04959237	     -5.49313457	     -4.30363685	      0.57694358	      0.86156897	      0.13340218	     67.16099000	     12.88878919	     -7.22409950	     66.13839904	      1.15433283	     30.58089915	      6.28044790	     -7.49999987	     90.30367064	     -9.51524132	      7.05151984	     39.00148900	      0.68070440	      7.64624997	     19.18245542	     -7.49999987	    -20.66118996	      1.59882122	      6.08172970	     47.36503663	      6.11105712	     76.81880497	    121.17410263	    103.03974409	     66.20402363	    -11.61785666	     66.47753020	    135.08138429	     96.99222166
      5.36666670	    -22.20514933	     -5.35170079	     -3.78234779	      0.58271387	      0.86980692	      0.13579973	     65.59401512	     12.91456741	     -6.30807124	     64.88320607	      1.13242558	     29.82071911	      5.42020265	     -7.49999987	     88.63451133	     -9.17346639	      6.78676817	     38.99841193	      0.68065069	      7.65182684	     18.19832683	     -7.49999987	    -20.27468279	      1.06648637	      5.70036742	     46.34559016	      6.27272482	     76.71749830	    122.49449587	    102.99981263	     65.54105681	    -11.32711528	     66.47760404	    136.16511255	     97.11452431
      5.38333330	    -21.36700238	     -5.24410435	     -3.40336764	      0.58318336	      0.87682630	      0.13006144	     63.90060310	     12.84463351	     -5.48096020	     63.46097295	      1.10760292	     29.08767293	      4.87871513	     -7.49999987	     86.92169021	     -8.84676640	      6.54336219	     38.81454458	      0.67744160	      7.65538611	     17.28709514	     -7.49999987	    -19.57094997	      0.72981284	      5.31610719	     45.49814927	      6.43078076	     75.62527377	    122.87619134	    103.02936357	     64.15777235	    -10.91787833	     66.83500124	    136.31829365	     97.26385035
      5.40000000	    -20.04160806	     -4.89715527	     -2.84356884	      0.58251326	      0.89496232	      0.12885333	     61.08874395	     12.63657492	     -4.14130446	     61.16102009	      1.06746117	     27.84399963	      3.39879537	     -7.49999987	     84.08481905	     -8.27195304	      6.19339049	     37.85341418	      0.66066671	      7.42447792	     15.99791029	     -7.49999987	    -19.86926876	     -0.13885399	      5.06061244	     43.81429125	      6.34680399	     74.19011562	    123.54801801	    105.08988815	     63.30410936	    -10.45511077	     67.15587025	    136.18534878	     99.73725982
      5.41666670	    -18.96088647	     -4.71042608	     -2.32623947	      0.58229771	      0.90547431	      0.12898243	     58.18520804	     12.56691398	     -2.85394002	     58.34068351	      1.01823702	     26.50806089	      1.81790592	     -7.49999987	     81.44183968	     -7.81823004	      5.85039245	     36.78794392	      0.64207075	      7.17851932	     15.08132102	     -7.49999987	    -19.95337626	     -0.77531237	      4.52146201	     42.03433093	      7.12038391	     72.81517278	    123.18239768	    105.03384936	     62.23799574	    -10.30249903	     68.34513047	    136.39684350	     99.92110435
